<?xml version="1.0" standalone="no"?>
<!DOCTYPE svg PUBLIC "-//W3C//DTD SVG 20010904//EN"
 "http://www.w3.org/TR/2001/REC-SVG-20010904/DTD/svg10.dtd">
<svg version="1.0" xmlns="http://www.w3.org/2000/svg"
 width="85.000000pt" height="85.000000pt" viewBox="0 0 85.000000 85.000000"
 preserveAspectRatio="xMidYMid meet">
<metadata>
Created by potrace 1.14, written by Peter Selinger 2001-2017
</metadata>
<g transform="translate(0.000000,85.000000) scale(0.100000,-0.100000)"
fill="#000000" stroke="none">
<path d="M351 816 c-18 -19 -22 -34 -20 -73 3 -53 3 -52 55 -142 l37 -64 24
29 c37 46 75 132 79 179 4 35 0 46 -22 68 -22 22 -36 27 -79 27 -41 0 -56 -5
-74 -24z"/>
<path d="M184 759 c-37 -11 -72 -46 -83 -87 -19 -65 43 -117 179 -152 l68 -17
-3 32 c-2 18 -8 41 -13 52 -5 10 -7 23 -5 30 2 6 -1 14 -6 18 -6 3 -11 14 -11
24 0 23 -45 83 -73 97 -14 7 -33 8 -53 3z"/>
<path d="M615 749 c-22 -13 -64 -57 -66 -71 -2 -13 -5 -21 -16 -49 -6 -14 -14
-43 -17 -63 -4 -21 -9 -42 -12 -47 -9 -16 52 -10 120 11 68 21 119 59 130 97
21 67 -80 155 -139 122z"/>
<path d="M58 526 c-51 -25 -67 -114 -29 -165 22 -28 88 -39 133 -20 28 11 133
72 148 86 7 7 -40 41 -100 72 -64 33 -119 43 -152 27z"/>
<path d="M710 523 c-38 -13 -118 -55 -145 -77 l-29 -24 63 -41 c100 -64 162
-76 206 -38 47 40 49 127 3 165 -17 14 -75 23 -98 15z"/>
<path d="M389 464 c-28 -34 -15 -70 31 -86 22 -8 49 14 54 43 7 48 -55 79 -85
43z"/>
<path d="M226 328 c-81 -26 -136 -71 -136 -113 0 -62 72 -124 127 -110 58 14
117 117 126 220 3 28 -33 29 -117 3z"/>
<path d="M506 323 c5 -30 10 -53 18 -93 11 -52 49 -109 82 -125 29 -14 37 -14
66 -2 46 20 69 49 75 94 4 34 1 43 -26 70 -29 29 -108 62 -188 78 -31 6 -32 5
-27 -22z"/>
<path d="M402 290 c-34 -46 -63 -102 -77 -146 -24 -79 28 -142 108 -131 90 12
112 96 53 207 -15 30 -36 65 -46 77 l-17 22 -21 -29z"/>
</g>
</svg>
